<svg xmlns="http://www.w3.org/2000/svg" viewBox="0 0 370 370" width="370" height="370" role="img" aria-label="QR code for birthday card">
  <rect width="100%" height="100%" fill="#fff8ed"/>
  <g fill="#15120d">
    <rect x="40" y="40" width="10" height="10"/><rect x="50" y="40" width="10" height="10"/><rect x="60" y="40" width="10" height="10"/><rect x="70" y="40" width="10" height="10"/><rect x="80" y="40" width="10" height="10"/><rect x="90" y="40" width="10" height="10"/><rect x="100" y="40" width="10" height="10"/><rect x="140" y="40" width="10" height="10"/><rect x="160" y="40" width="10" height="10"/><rect x="180" y="40" width="10" height="10"/><rect x="220" y="40" width="10" height="10"/><rect x="230" y="40" width="10" height="10"/><rect x="240" y="40" width="10" height="10"/><rect x="260" y="40" width="10" height="10"/><rect x="270" y="40" width="10" height="10"/><rect x="280" y="40" width="10" height="10"/><rect x="290" y="40" width="10" height="10"/><rect x="300" y="40" width="10" height="10"/><rect x="310" y="40" width="10" height="10"/><rect x="320" y="40" width="10" height="10"/><rect x="40" y="50" width="10" height="10"/><rect x="100" y="50" width="10" height="10"/><rect x="120" y="50" width="10" height="10"/><rect x="140" y="50" width="10" height="10"/><rect x="170" y="50" width="10" height="10"/><rect x="190" y="50" width="10" height="10"/><rect x="200" y="50" width="10" height="10"/><rect x="210" y="50" width="10" height="10"/><rect x="220" y="50" width="10" height="10"/><rect x="240" y="50" width="10" height="10"/><rect x="260" y="50" width="10" height="10"/><rect x="320" y="50" width="10" height="10"/><rect x="40" y="60" width="10" height="10"/><rect x="60" y="60" width="10" height="10"/><rect x="70" y="60" width="10" height="10"/><rect x="80" y="60" width="10" height="10"/><rect x="100" y="60" width="10" height="10"/><rect x="160" y="60" width="10" height="10"/><rect x="180" y="60" width="10" height="10"/><rect x="190" y="60" width="10" height="10"/><rect x="200" y="60" width="10" height="10"/><rect x="220" y="60" width="10" height="10"/><rect x="240" y="60" width="10" height="10"/><rect x="260" y="60" width="10" height="10"/><rect x="280" y="60" width="10" height="10"/><rect x="290" y="60" width="10" height="10"/><rect x="300" y="60" width="10" height="10"/><rect x="320" y="60" width="10" height="10"/><rect x="40" y="70" width="10" height="10"/><rect x="60" y="70" width="10" height="10"/><rect x="70" y="70" width="10" height="10"/><rect x="80" y="70" width="10" height="10"/><rect x="100" y="70" width="10" height="10"/><rect x="120" y="70" width="10" height="10"/><rect x="130" y="70" width="10" height="10"/><rect x="140" y="70" width="10" height="10"/><rect x="160" y="70" width="10" height="10"/><rect x="170" y="70" width="10" height="10"/><rect x="180" y="70" width="10" height="10"/><rect x="210" y="70" width="10" height="10"/><rect x="220" y="70" width="10" height="10"/><rect x="240" y="70" width="10" height="10"/><rect x="260" y="70" width="10" height="10"/><rect x="280" y="70" width="10" height="10"/><rect x="290" y="70" width="10" height="10"/><rect x="300" y="70" width="10" height="10"/><rect x="320" y="70" width="10" height="10"/><rect x="40" y="80" width="10" height="10"/><rect x="60" y="80" width="10" height="10"/><rect x="70" y="80" width="10" height="10"/><rect x="80" y="80" width="10" height="10"/><rect x="100" y="80" width="10" height="10"/><rect x="130" y="80" width="10" height="10"/><rect x="210" y="80" width="10" height="10"/><rect x="220" y="80" width="10" height="10"/><rect x="230" y="80" width="10" height="10"/><rect x="240" y="80" width="10" height="10"/><rect x="260" y="80" width="10" height="10"/><rect x="280" y="80" width="10" height="10"/><rect x="290" y="80" width="10" height="10"/><rect x="300" y="80" width="10" height="10"/><rect x="320" y="80" width="10" height="10"/><rect x="40" y="90" width="10" height="10"/><rect x="100" y="90" width="10" height="10"/><rect x="120" y="90" width="10" height="10"/><rect x="130" y="90" width="10" height="10"/><rect x="150" y="90" width="10" height="10"/><rect x="160" y="90" width="10" height="10"/><rect x="180" y="90" width="10" height="10"/><rect x="190" y="90" width="10" height="10"/><rect x="200" y="90" width="10" height="10"/><rect x="210" y="90" width="10" height="10"/><rect x="260" y="90" width="10" height="10"/><rect x="320" y="90" width="10" height="10"/><rect x="40" y="100" width="10" height="10"/><rect x="50" y="100" width="10" height="10"/><rect x="60" y="100" width="10" height="10"/><rect x="70" y="100" width="10" height="10"/><rect x="80" y="100" width="10" height="10"/><rect x="90" y="100" width="10" height="10"/><rect x="100" y="100" width="10" height="10"/><rect x="120" y="100" width="10" height="10"/><rect x="140" y="100" width="10" height="10"/><rect x="160" y="100" width="10" height="10"/><rect x="180" y="100" width="10" height="10"/><rect x="200" y="100" width="10" height="10"/><rect x="220" y="100" width="10" height="10"/><rect x="240" y="100" width="10" height="10"/><rect x="260" y="100" width="10" height="10"/><rect x="270" y="100" width="10" height="10"/><rect x="280" y="100" width="10" height="10"/><rect x="290" y="100" width="10" height="10"/><rect x="300" y="100" width="10" height="10"/><rect x="310" y="100" width="10" height="10"/><rect x="320" y="100" width="10" height="10"/><rect x="130" y="110" width="10" height="10"/><rect x="140" y="110" width="10" height="10"/><rect x="150" y="110" width="10" height="10"/><rect x="190" y="110" width="10" height="10"/><rect x="220" y="110" width="10" height="10"/><rect x="40" y="120" width="10" height="10"/><rect x="50" y="120" width="10" height="10"/><rect x="60" y="120" width="10" height="10"/><rect x="70" y="120" width="10" height="10"/><rect x="80" y="120" width="10" height="10"/><rect x="100" y="120" width="10" height="10"/><rect x="110" y="120" width="10" height="10"/><rect x="120" y="120" width="10" height="10"/><rect x="130" y="120" width="10" height="10"/><rect x="150" y="120" width="10" height="10"/><rect x="170" y="120" width="10" height="10"/><rect x="200" y="120" width="10" height="10"/><rect x="210" y="120" width="10" height="10"/><rect x="230" y="120" width="10" height="10"/><rect x="250" y="120" width="10" height="10"/><rect x="270" y="120" width="10" height="10"/><rect x="290" y="120" width="10" height="10"/><rect x="310" y="120" width="10" height="10"/><rect x="40" y="130" width="10" height="10"/><rect x="50" y="130" width="10" height="10"/><rect x="60" y="130" width="10" height="10"/><rect x="110" y="130" width="10" height="10"/><rect x="140" y="130" width="10" height="10"/><rect x="160" y="130" width="10" height="10"/><rect x="170" y="130" width="10" height="10"/><rect x="200" y="130" width="10" height="10"/><rect x="210" y="130" width="10" height="10"/><rect x="220" y="130" width="10" height="10"/><rect x="230" y="130" width="10" height="10"/><rect x="240" y="130" width="10" height="10"/><rect x="250" y="130" width="10" height="10"/><rect x="260" y="130" width="10" height="10"/><rect x="270" y="130" width="10" height="10"/><rect x="280" y="130" width="10" height="10"/><rect x="320" y="130" width="10" height="10"/><rect x="40" y="140" width="10" height="10"/><rect x="50" y="140" width="10" height="10"/><rect x="80" y="140" width="10" height="10"/><rect x="90" y="140" width="10" height="10"/><rect x="100" y="140" width="10" height="10"/><rect x="110" y="140" width="10" height="10"/><rect x="140" y="140" width="10" height="10"/><rect x="170" y="140" width="10" height="10"/><rect x="180" y="140" width="10" height="10"/><rect x="190" y="140" width="10" height="10"/><rect x="200" y="140" width="10" height="10"/><rect x="220" y="140" width="10" height="10"/><rect x="250" y="140" width="10" height="10"/><rect x="40" y="150" width="10" height="10"/><rect x="50" y="150" width="10" height="10"/><rect x="70" y="150" width="10" height="10"/><rect x="120" y="150" width="10" height="10"/><rect x="160" y="150" width="10" height="10"/><rect x="180" y="150" width="10" height="10"/><rect x="190" y="150" width="10" height="10"/><rect x="240" y="150" width="10" height="10"/><rect x="270" y="150" width="10" height="10"/><rect x="290" y="150" width="10" height="10"/><rect x="310" y="150" width="10" height="10"/><rect x="50" y="160" width="10" height="10"/><rect x="80" y="160" width="10" height="10"/><rect x="90" y="160" width="10" height="10"/><rect x="100" y="160" width="10" height="10"/><rect x="120" y="160" width="10" height="10"/><rect x="130" y="160" width="10" height="10"/><rect x="140" y="160" width="10" height="10"/><rect x="160" y="160" width="10" height="10"/><rect x="190" y="160" width="10" height="10"/><rect x="210" y="160" width="10" height="10"/><rect x="240" y="160" width="10" height="10"/><rect x="250" y="160" width="10" height="10"/><rect x="290" y="160" width="10" height="10"/><rect x="300" y="160" width="10" height="10"/><rect x="60" y="170" width="10" height="10"/><rect x="70" y="170" width="10" height="10"/><rect x="80" y="170" width="10" height="10"/><rect x="90" y="170" width="10" height="10"/><rect x="110" y="170" width="10" height="10"/><rect x="130" y="170" width="10" height="10"/><rect x="200" y="170" width="10" height="10"/><rect x="210" y="170" width="10" height="10"/><rect x="220" y="170" width="10" height="10"/><rect x="230" y="170" width="10" height="10"/><rect x="240" y="170" width="10" height="10"/><rect x="260" y="170" width="10" height="10"/><rect x="270" y="170" width="10" height="10"/><rect x="280" y="170" width="10" height="10"/><rect x="320" y="170" width="10" height="10"/><rect x="70" y="180" width="10" height="10"/><rect x="80" y="180" width="10" height="10"/><rect x="90" y="180" width="10" height="10"/><rect x="100" y="180" width="10" height="10"/><rect x="120" y="180" width="10" height="10"/><rect x="140" y="180" width="10" height="10"/><rect x="150" y="180" width="10" height="10"/><rect x="160" y="180" width="10" height="10"/><rect x="190" y="180" width="10" height="10"/><rect x="210" y="180" width="10" height="10"/><rect x="240" y="180" width="10" height="10"/><rect x="270" y="180" width="10" height="10"/><rect x="290" y="180" width="10" height="10"/><rect x="300" y="180" width="10" height="10"/><rect x="60" y="190" width="10" height="10"/><rect x="70" y="190" width="10" height="10"/><rect x="90" y="190" width="10" height="10"/><rect x="110" y="190" width="10" height="10"/><rect x="140" y="190" width="10" height="10"/><rect x="150" y="190" width="10" height="10"/><rect x="180" y="190" width="10" height="10"/><rect x="190" y="190" width="10" height="10"/><rect x="200" y="190" width="10" height="10"/><rect x="270" y="190" width="10" height="10"/><rect x="310" y="190" width="10" height="10"/><rect x="40" y="200" width="10" height="10"/><rect x="100" y="200" width="10" height="10"/><rect x="110" y="200" width="10" height="10"/><rect x="120" y="200" width="10" height="10"/><rect x="150" y="200" width="10" height="10"/><rect x="190" y="200" width="10" height="10"/><rect x="210" y="200" width="10" height="10"/><rect x="220" y="200" width="10" height="10"/><rect x="230" y="200" width="10" height="10"/><rect x="250" y="200" width="10" height="10"/><rect x="290" y="200" width="10" height="10"/><rect x="300" y="200" width="10" height="10"/><rect x="40" y="210" width="10" height="10"/><rect x="110" y="210" width="10" height="10"/><rect x="130" y="210" width="10" height="10"/><rect x="140" y="210" width="10" height="10"/><rect x="160" y="210" width="10" height="10"/><rect x="170" y="210" width="10" height="10"/><rect x="180" y="210" width="10" height="10"/><rect x="200" y="210" width="10" height="10"/><rect x="210" y="210" width="10" height="10"/><rect x="220" y="210" width="10" height="10"/><rect x="230" y="210" width="10" height="10"/><rect x="240" y="210" width="10" height="10"/><rect x="260" y="210" width="10" height="10"/><rect x="270" y="210" width="10" height="10"/><rect x="280" y="210" width="10" height="10"/><rect x="300" y="210" width="10" height="10"/><rect x="320" y="210" width="10" height="10"/><rect x="40" y="220" width="10" height="10"/><rect x="100" y="220" width="10" height="10"/><rect x="110" y="220" width="10" height="10"/><rect x="120" y="220" width="10" height="10"/><rect x="170" y="220" width="10" height="10"/><rect x="180" y="220" width="10" height="10"/><rect x="190" y="220" width="10" height="10"/><rect x="210" y="220" width="10" height="10"/><rect x="240" y="220" width="10" height="10"/><rect x="250" y="220" width="10" height="10"/><rect x="270" y="220" width="10" height="10"/><rect x="280" y="220" width="10" height="10"/><rect x="300" y="220" width="10" height="10"/><rect x="40" y="230" width="10" height="10"/><rect x="70" y="230" width="10" height="10"/><rect x="90" y="230" width="10" height="10"/><rect x="120" y="230" width="10" height="10"/><rect x="130" y="230" width="10" height="10"/><rect x="140" y="230" width="10" height="10"/><rect x="160" y="230" width="10" height="10"/><rect x="170" y="230" width="10" height="10"/><rect x="190" y="230" width="10" height="10"/><rect x="230" y="230" width="10" height="10"/><rect x="240" y="230" width="10" height="10"/><rect x="250" y="230" width="10" height="10"/><rect x="310" y="230" width="10" height="10"/><rect x="40" y="240" width="10" height="10"/><rect x="60" y="240" width="10" height="10"/><rect x="70" y="240" width="10" height="10"/><rect x="80" y="240" width="10" height="10"/><rect x="90" y="240" width="10" height="10"/><rect x="100" y="240" width="10" height="10"/><rect x="110" y="240" width="10" height="10"/><rect x="120" y="240" width="10" height="10"/><rect x="160" y="240" width="10" height="10"/><rect x="180" y="240" width="10" height="10"/><rect x="210" y="240" width="10" height="10"/><rect x="240" y="240" width="10" height="10"/><rect x="250" y="240" width="10" height="10"/><rect x="260" y="240" width="10" height="10"/><rect x="270" y="240" width="10" height="10"/><rect x="280" y="240" width="10" height="10"/><rect x="300" y="240" width="10" height="10"/><rect x="310" y="240" width="10" height="10"/><rect x="320" y="240" width="10" height="10"/><rect x="120" y="250" width="10" height="10"/><rect x="130" y="250" width="10" height="10"/><rect x="200" y="250" width="10" height="10"/><rect x="220" y="250" width="10" height="10"/><rect x="240" y="250" width="10" height="10"/><rect x="280" y="250" width="10" height="10"/><rect x="290" y="250" width="10" height="10"/><rect x="300" y="250" width="10" height="10"/><rect x="310" y="250" width="10" height="10"/><rect x="320" y="250" width="10" height="10"/><rect x="40" y="260" width="10" height="10"/><rect x="50" y="260" width="10" height="10"/><rect x="60" y="260" width="10" height="10"/><rect x="70" y="260" width="10" height="10"/><rect x="80" y="260" width="10" height="10"/><rect x="90" y="260" width="10" height="10"/><rect x="100" y="260" width="10" height="10"/><rect x="120" y="260" width="10" height="10"/><rect x="140" y="260" width="10" height="10"/><rect x="150" y="260" width="10" height="10"/><rect x="160" y="260" width="10" height="10"/><rect x="190" y="260" width="10" height="10"/><rect x="210" y="260" width="10" height="10"/><rect x="220" y="260" width="10" height="10"/><rect x="230" y="260" width="10" height="10"/><rect x="240" y="260" width="10" height="10"/><rect x="260" y="260" width="10" height="10"/><rect x="280" y="260" width="10" height="10"/><rect x="290" y="260" width="10" height="10"/><rect x="300" y="260" width="10" height="10"/><rect x="40" y="270" width="10" height="10"/><rect x="100" y="270" width="10" height="10"/><rect x="130" y="270" width="10" height="10"/><rect x="140" y="270" width="10" height="10"/><rect x="150" y="270" width="10" height="10"/><rect x="180" y="270" width="10" height="10"/><rect x="190" y="270" width="10" height="10"/><rect x="200" y="270" width="10" height="10"/><rect x="220" y="270" width="10" height="10"/><rect x="230" y="270" width="10" height="10"/><rect x="240" y="270" width="10" height="10"/><rect x="280" y="270" width="10" height="10"/><rect x="320" y="270" width="10" height="10"/><rect x="40" y="280" width="10" height="10"/><rect x="60" y="280" width="10" height="10"/><rect x="70" y="280" width="10" height="10"/><rect x="80" y="280" width="10" height="10"/><rect x="100" y="280" width="10" height="10"/><rect x="120" y="280" width="10" height="10"/><rect x="150" y="280" width="10" height="10"/><rect x="190" y="280" width="10" height="10"/><rect x="200" y="280" width="10" height="10"/><rect x="210" y="280" width="10" height="10"/><rect x="240" y="280" width="10" height="10"/><rect x="250" y="280" width="10" height="10"/><rect x="260" y="280" width="10" height="10"/><rect x="270" y="280" width="10" height="10"/><rect x="280" y="280" width="10" height="10"/><rect x="300" y="280" width="10" height="10"/><rect x="40" y="290" width="10" height="10"/><rect x="60" y="290" width="10" height="10"/><rect x="70" y="290" width="10" height="10"/><rect x="80" y="290" width="10" height="10"/><rect x="100" y="290" width="10" height="10"/><rect x="120" y="290" width="10" height="10"/><rect x="130" y="290" width="10" height="10"/><rect x="140" y="290" width="10" height="10"/><rect x="160" y="290" width="10" height="10"/><rect x="170" y="290" width="10" height="10"/><rect x="180" y="290" width="10" height="10"/><rect x="200" y="290" width="10" height="10"/><rect x="210" y="290" width="10" height="10"/><rect x="220" y="290" width="10" height="10"/><rect x="240" y="290" width="10" height="10"/><rect x="250" y="290" width="10" height="10"/><rect x="290" y="290" width="10" height="10"/><rect x="300" y="290" width="10" height="10"/><rect x="310" y="290" width="10" height="10"/><rect x="320" y="290" width="10" height="10"/><rect x="40" y="300" width="10" height="10"/><rect x="60" y="300" width="10" height="10"/><rect x="70" y="300" width="10" height="10"/><rect x="80" y="300" width="10" height="10"/><rect x="100" y="300" width="10" height="10"/><rect x="120" y="300" width="10" height="10"/><rect x="170" y="300" width="10" height="10"/><rect x="180" y="300" width="10" height="10"/><rect x="190" y="300" width="10" height="10"/><rect x="220" y="300" width="10" height="10"/><rect x="230" y="300" width="10" height="10"/><rect x="240" y="300" width="10" height="10"/><rect x="260" y="300" width="10" height="10"/><rect x="270" y="300" width="10" height="10"/><rect x="280" y="300" width="10" height="10"/><rect x="290" y="300" width="10" height="10"/><rect x="300" y="300" width="10" height="10"/><rect x="310" y="300" width="10" height="10"/><rect x="40" y="310" width="10" height="10"/><rect x="100" y="310" width="10" height="10"/><rect x="120" y="310" width="10" height="10"/><rect x="160" y="310" width="10" height="10"/><rect x="170" y="310" width="10" height="10"/><rect x="240" y="310" width="10" height="10"/><rect x="250" y="310" width="10" height="10"/><rect x="260" y="310" width="10" height="10"/><rect x="290" y="310" width="10" height="10"/><rect x="310" y="310" width="10" height="10"/><rect x="40" y="320" width="10" height="10"/><rect x="50" y="320" width="10" height="10"/><rect x="60" y="320" width="10" height="10"/><rect x="70" y="320" width="10" height="10"/><rect x="80" y="320" width="10" height="10"/><rect x="90" y="320" width="10" height="10"/><rect x="100" y="320" width="10" height="10"/><rect x="120" y="320" width="10" height="10"/><rect x="140" y="320" width="10" height="10"/><rect x="160" y="320" width="10" height="10"/><rect x="180" y="320" width="10" height="10"/><rect x="190" y="320" width="10" height="10"/><rect x="200" y="320" width="10" height="10"/><rect x="210" y="320" width="10" height="10"/><rect x="270" y="320" width="10" height="10"/><rect x="280" y="320" width="10" height="10"/><rect x="300" y="320" width="10" height="10"/>
  </g>
</svg>
